<?xml version="1.0" ?><!DOCTYPE svg  PUBLIC '-//W3C//DTD SVG 1.0//EN'  'http://www.w3.org/TR/2001/REC-SVG-20010904/DTD/svg10.dtd'><svg enable-background="new 0 0 100 100" height="100px" id="Layer_1" version="1.0" viewBox="0 0 100 100" width="100px" xml:space="preserve" xmlns="http://www.w3.org/2000/svg" xmlns:xlink="http://www.w3.org/1999/xlink"><path d="M86.346,25.111c-5.573-5.615-11.811-6.791-13.93-2.601c-2.115,4.173-3.018,10.394-1.995,13.877s7.256,4.655,13.926,2.604  C91.02,36.95,91.912,30.736,86.346,25.111z"/><path d="M46.498,67.722l3.675,1.224c1.742,0.579,3.409,2.536,3.711,4.343L56.668,90h20.003V66.667c4.443-5.521,4.443-14.479,0-20  c0,0-1.032-1.032-2.295-2.295c-1.263-1.263-3.142-1.058-4.177,0.456c0,0-3.955,5.775-9.219,7.184l-14.426,3.864  c-1.771,0.475-3.219,2.363-3.219,4.195c0,0,0,1.484,0,3.298S44.758,67.142,46.498,67.722z"/><path d="M66.326,33.327c-0.717-2.669-2.441-4.792-4.662-6.074L31.774,10H10v9.86c15.135,5.788,25.736,15.231,29.067,27.669  c0.475,1.781,2.305,2.832,4.082,2.356l16.106-4.313C64.588,44.144,67.755,38.659,66.326,33.327z"/></svg>