<?xml version="1.0" ?><!DOCTYPE svg  PUBLIC '-//W3C//DTD SVG 1.0//EN'  'http://www.w3.org/TR/2001/REC-SVG-20010904/DTD/svg10.dtd'><svg enable-background="new 0 0 100 100" height="100px" id="Layer_1" version="1.0" viewBox="0 0 100 100" width="100px" xml:space="preserve" xmlns="http://www.w3.org/2000/svg" xmlns:xlink="http://www.w3.org/1999/xlink"><path d="M20,30c-5.521,0-10,4.476-10,10c0,5.521,4.479,10,10,10s10-4.479,10-10C30,34.476,25.521,30,20,30z"/><path d="M10,56.667V90h6.667V80h6.667v10H30V56.667H10z"/><path d="M56.667,10c-5.521,0-10,4.476-10,10c0,5.521,4.479,10,10,10c5.521,0,10-4.479,10-10C66.667,14.476,62.188,10,56.667,10z"/><polygon points="73.333,83.333 63.333,36.667 56.813,38.063 36.667,53.333 40.693,58.646 58.356,45.26 62.764,65.83 43.333,70   43.333,90 50,90 50,75.388 64.16,72.347 67.942,90 90,90 90,83.333 "/></svg>