<?xml version="1.0" ?><!DOCTYPE svg  PUBLIC '-//W3C//DTD SVG 1.0//EN'  'http://www.w3.org/TR/2001/REC-SVG-20010904/DTD/svg10.dtd'><svg xmlns="http://www.w3.org/2000/svg" xmlns:xlink="http://www.w3.org/1999/xlink" version="1.0" id="Layer_1" width="100px" height="100px" viewBox="0 0 100 100" enable-background="new 0 0 100 100" xml:space="preserve"><path d="M76.668,33.334c-3.914-1.775-8.486-3.061-13.354-3.891C63.119,18.658,57.24,10,50,10c-7.237,0-13.116,8.658-13.313,19.443  c-4.866,0.83-9.437,2.119-13.353,3.891L10,50l6.667,20l4.745-1.582L17.47,51.335l10.406-6.644l0.885,2.213  C29.443,48.607,30,51.501,30,53.333v7.5c0,1.374,0.797,3.295,1.768,4.268L36.667,70l-3.333,10v5l-5,1.667V90h15v-3.333L40,85v-3.333  L46.667,70h6.667L60,81.667V85l-3.332,1.667V90h15v-3.333l-5-1.667v-5l-3.334-10l4.898-4.899C69.207,64.128,70,62.207,70,60.833  v-7.5c0-1.832,0.557-4.726,1.238-6.429l0.885-2.213l10.406,6.644l-3.941,17.083L83.334,70L90,50L76.668,33.334z M51.668,50  c0,1.833-1.502,3.333-3.334,3.333h-6.667c-1.833,0-3.333-1.5-3.333-3.333v-6.666c0-1.834,1.5-3.334,3.333-3.334h6.667  c1.832,0,3.334,1.5,3.334,3.334V50z M54.168,23.334h-8.334c-1.381,0-2.5-1.121-2.5-2.5c0-1.381,1.119-2.5,2.5-2.5h8.334  c1.379,0,2.5,1.119,2.5,2.5C56.668,22.213,55.547,23.334,54.168,23.334z M59.168,53.333c-1.381,0-2.5-1.119-2.5-2.5  c0-1.38,1.119-2.499,2.5-2.499c1.379,0,2.5,1.119,2.5,2.499C61.668,52.214,60.547,53.333,59.168,53.333z M59.168,45  c-1.381,0-2.5-1.119-2.5-2.5s1.119-2.5,2.5-2.5c1.379,0,2.5,1.119,2.5,2.5S60.547,45,59.168,45z"/></svg>