<?xml version="1.0" ?><!DOCTYPE svg  PUBLIC '-//W3C//DTD SVG 1.0//EN'  'http://www.w3.org/TR/2001/REC-SVG-20010904/DTD/svg10.dtd'><svg enable-background="new 0 0 100 100" height="100px" id="Layer_1" version="1.0" viewBox="0 0 100 100" width="100px" xml:space="preserve" xmlns="http://www.w3.org/2000/svg" xmlns:xlink="http://www.w3.org/1999/xlink"><path d="M73.333,59.814v7.004c6.592,2.295,10,5.121,10,6.514c0,2.568-11.461,10-33.333,10s-33.333-7.432-33.333-10  c0-1.393,3.408-4.219,10-6.514v-7.004C16.589,62.842,10,67.76,10,73.332C10,82.539,27.91,90,50,90s40-7.461,40-16.668  C90,67.76,83.411,62.842,73.333,59.814z"/><path d="M50,10c-5.521,0-10,4.476-10,10c0,5.521,4.479,10,10,10s10-4.479,10-10C60,14.476,55.521,10,50,10z"/><path d="M60,43.333l16.667-16.667l-4.714-4.713L57.239,36.666H42.061L32.438,20l-5.771,3.333L40,46.426V60L30,70v6.666h20V70H39.427  l6.667-6.668h9.192L68.62,76.666l4.713-4.713L60,58.619V43.333z"/></svg>