<?xml version="1.0" ?><!DOCTYPE svg  PUBLIC '-//W3C//DTD SVG 1.0//EN'  'http://www.w3.org/TR/2001/REC-SVG-20010904/DTD/svg10.dtd'><svg enable-background="new 0 0 100 100" height="100px" id="Layer_1" version="1.0" viewBox="0 0 100 100" width="100px" xml:space="preserve" xmlns="http://www.w3.org/2000/svg" xmlns:xlink="http://www.w3.org/1999/xlink"><path d="M80,56.667c-5.521,0-10,4.473-10,10c0,5.521,4.479,10,10,10s10-4.479,10-10C90,61.14,85.521,56.667,80,56.667z"/><rect height="6.667" width="80" x="10" y="83.333"/><path d="M23.334,20c0,5.521,4.479,10,10,10c5.521,0,10-4.479,10-10c0-5.524-4.479-10-10-10C27.813,10,23.334,14.476,23.334,20z"/><path d="M43.334,70V46.094L50,52.76v10.573h6.667v-9.999c0-1.834-1.062-4.395-2.357-5.691L43.334,36.667H20.564l-8.616,8.62  c-2.598,2.591-2.598,6.836,0,9.427l11.387,11.387V70H10v6.667h53.333V70H43.334z M16.661,50l6.674-6.673v13.346L16.661,50z"/></svg>