<?xml version="1.0" ?><!DOCTYPE svg  PUBLIC '-//W3C//DTD SVG 1.0//EN'  'http://www.w3.org/TR/2001/REC-SVG-20010904/DTD/svg10.dtd'><svg enable-background="new 0 0 100 100" height="100px" id="Layer_1" version="1.0" viewBox="0 0 100 100" width="100px" xml:space="preserve" xmlns="http://www.w3.org/2000/svg" xmlns:xlink="http://www.w3.org/1999/xlink"><path d="M90,36.667C90,21.94,83.281,10,75,10S60,21.94,60,36.667c0,6.41,4.043,11.839,9.697,13.985l-1.364,32.682  C68.333,87.015,71.321,90,75,90c3.685,0,6.667-2.985,6.667-6.667l-1.361-32.679C85.964,48.506,90,43.076,90,36.667z"/><path d="M10,10v13.333c6.162,0,11.818,2.109,16.334,5.618l-4.759,4.759C18.307,31.38,14.318,30,10,30v40  c9.907,0,18.11-7.214,19.701-16.667h6.735C34.792,66.484,23.595,76.667,10,76.667V90c22.091-0.003,40-17.91,40-40  C50,27.907,32.091,10,10,10z M29.701,46.667c-0.511-3.034-1.696-5.833-3.41-8.242l4.758-4.759c2.864,3.685,4.78,8.135,5.387,13.001  H29.701z"/></svg>